<?xml version="1.0" standalone="no"?>
<!DOCTYPE svg PUBLIC "-//W3C//DTD SVG 20010904//EN"
 "http://www.w3.org/TR/2001/REC-SVG-20010904/DTD/svg10.dtd">
<svg version="1.0" xmlns="http://www.w3.org/2000/svg"
 width="150.000000pt" height="150.000000pt" viewBox="0 0 150.000000 150.000000"
 preserveAspectRatio="xMidYMid meet">
<metadata>
Created by potrace 1.11, written by Peter Selinger 2001-2013
</metadata>
<g transform="translate(0.000000,150.000000) scale(0.100000,-0.100000)"
fill="#000000" stroke="none">
<path d="M140 775 c0 -415 3 -566 12 -571 7 -5 8 -3 3 6 -6 9 -4 11 5 5 15 -9
110 -14 110 -5 0 12 63 2 71 -11 7 -12 9 -12 9 0 0 8 7 11 20 8 11 -3 20 -1
20 5 0 5 5 6 12 2 15 -10 78 -11 78 -1 0 4 5 7 11 7 5 0 8 -4 5 -8 -7 -11 56
-2 71 10 7 6 14 5 19 -3 4 -8 3 -9 -4 -5 -8 5 -10 1 -5 -9 4 -12 8 -13 13 -4
5 6 15 9 24 6 9 -4 16 -1 16 5 0 7 4 7 13 0 29 -24 33 4 33 216 -1 118 2 216
6 219 5 2 8 0 8 -5 0 -5 22 -56 49 -113 96 -205 131 -281 131 -290 0 -5 5 -9
11 -9 6 0 8 -7 4 -17 -5 -15 -4 -16 6 -5 15 14 33 17 25 3 -6 -8 53 -5 62 4 3
2 12 0 21 -5 10 -5 23 -5 31 0 8 5 22 4 32 -1 14 -8 18 -6 18 8 0 15 2 15 15
-3 8 -11 15 -14 15 -6 0 6 5 12 11 12 5 0 7 -4 4 -10 -4 -6 2 -7 17 -1 14 5
31 5 40 0 11 -6 21 -4 32 7 9 8 16 11 16 6 0 -5 25 -9 55 -9 38 0 53 3 48 11
-5 8 -3 8 8 0 19 -15 46 -14 46 3 0 7 -4 13 -9 13 -5 0 -7 4 -3 9 3 5 -2 16
-10 24 -8 9 -15 20 -15 26 0 6 -4 11 -10 11 -5 0 -10 5 -10 11 0 5 6 7 13 4 6
-4 3 1 -7 9 -11 9 -16 16 -11 16 5 0 1 6 -10 13 -10 8 -15 19 -11 25 4 7 2 12
-4 12 -7 0 -10 6 -7 14 3 8 -1 20 -9 26 -8 7 -14 18 -14 25 0 7 -7 18 -15 25
-8 7 -12 16 -9 21 3 5 0 9 -5 9 -6 0 -11 7 -11 15 0 8 -6 15 -12 15 -10 0 -10
2 0 9 11 7 10 9 -3 15 -9 3 -13 10 -10 16 3 5 2 10 -2 10 -5 0 -14 9 -21 21
-8 12 -9 18 -3 14 6 -3 11 -1 11 4 0 6 -7 11 -16 11 -8 0 -13 4 -9 9 3 5 -2
17 -11 26 -9 9 -16 27 -16 40 -1 14 -4 22 -9 20 -4 -3 -10 -1 -14 4 -10 17
-13 91 -3 91 5 0 6 5 3 10 -3 6 1 13 10 16 9 4 14 13 11 21 -3 8 -1 11 4 8 6
-3 10 -1 10 5 0 6 6 8 13 4 9 -5 9 -4 0 6 -10 11 -7 18 12 36 27 25 33 39 13
29 -7 -4 0 5 16 18 21 18 27 30 22 43 -4 10 -4 15 0 12 8 -9 33 15 27 25 -3 5
3 15 13 22 11 8 15 15 11 15 -4 0 1 10 13 22 11 12 19 29 18 37 -2 9 2 15 9
14 6 -1 16 11 22 27 5 17 15 30 21 30 6 0 8 5 5 11 -4 6 1 17 11 25 11 9 12
12 4 8 -12 -6 -13 -4 -2 7 6 7 12 21 12 30 0 16 -20 17 -242 16 -154 -1 -243
-6 -243 -12 0 -5 -3 -14 -7 -20 -5 -9 -58 -109 -169 -323 -24 -46 -40 -68 -45
-60 -4 6 -7 103 -7 214 l0 203 -269 0 -268 0 0 -564z"/>
</g>
</svg>
